<svg width="36" height="26" viewBox="0 0 36 26" fill="none" xmlns="http://www.w3.org/2000/svg">
<path d="M34.9481 11.5481L31.6575 8.2575C30.9825 7.5825 30.0656 7.20563 29.1094 7.20563H27V1.8C27 0.804375 26.1956 0 25.2 0H1.8C0.804375 0 0 0.804375 0 1.8V20.7C0 23.1863 2.01375 25.2 4.5 25.2C5.97937 25.2 7.27875 24.4744 8.1 23.3775C8.92125 24.48 10.2206 25.2 11.7 25.2C14.1862 25.2 16.2 23.1863 16.2 20.7C16.2 20.3906 16.1662 20.0925 16.11 19.8H25.29C25.2281 20.0925 25.2 20.3906 25.2 20.7C25.2 23.1863 27.2137 25.2 29.7 25.2C32.1862 25.2 34.2 23.1863 34.2 20.7C34.2 20.3906 34.1663 20.0925 34.11 19.8H35.1C35.595 19.8 36 19.395 36 18.9V14.0906C36 13.1344 35.6231 12.2231 34.9481 11.5481ZM4.5 22.5C3.51 22.5 2.7 21.69 2.7 20.7C2.7 19.71 3.51 18.9 4.5 18.9C5.49 18.9 6.3 19.71 6.3 20.7C6.3 21.69 5.49 22.5 4.5 22.5ZM11.7 22.5C10.71 22.5 9.9 21.69 9.9 20.7C9.9 19.71 10.71 18.9 11.7 18.9C12.69 18.9 13.5 19.71 13.5 20.7C13.5 21.69 12.69 22.5 11.7 22.5ZM27 9.9H29.1094C29.3512 9.9 29.5762 9.99563 29.745 10.1644L32.1806 12.6H27V9.9ZM29.7 22.5C28.71 22.5 27.9 21.69 27.9 20.7C27.9 19.71 28.71 18.9 29.7 18.9C30.69 18.9 31.5 19.71 31.5 20.7C31.5 21.69 30.69 22.5 29.7 22.5Z" fill="white"/>
</svg>
